<?xml version="1.0" encoding="UTF-8" standalone="no"?>
<!-- Created with Inkscape (http://www.inkscape.org/) -->

<svg
   width="380.71359mm"
   height="116.03719mm"
   viewBox="0 0 380.71359 116.03719"
   version="1.1"
   id="svg1"
   xml:space="preserve"
   inkscape:version="1.4.2 (f4327f4, 2025-05-13)"
   sodipodi:docname="drawing.svg"
   xmlns:inkscape="http://www.inkscape.org/namespaces/inkscape"
   xmlns:sodipodi="http://sodipodi.sourceforge.net/DTD/sodipodi-0.dtd"
   xmlns="http://www.w3.org/2000/svg"
   xmlns:svg="http://www.w3.org/2000/svg"><sodipodi:namedview
     id="namedview1"
     pagecolor="#ffffff"
     bordercolor="#000000"
     borderopacity="0.25"
     inkscape:showpageshadow="2"
     inkscape:pageopacity="0.0"
     inkscape:pagecheckerboard="0"
     inkscape:deskcolor="#d1d1d1"
     inkscape:document-units="mm"
     inkscape:zoom="0.48693448"
     inkscape:cx="935.44412"
     inkscape:cy="111.92471"
     inkscape:window-width="1920"
     inkscape:window-height="991"
     inkscape:window-x="-9"
     inkscape:window-y="-9"
     inkscape:window-maximized="1"
     inkscape:current-layer="layer1" /><defs
     id="defs1" /><g
     inkscape:label="Layer 1"
     inkscape:groupmode="layer"
     id="layer1"
     transform="translate(178.33618,-109.4511)"><path
       style="fill:#101010;stroke-width:0.641621"
       d="m 88.120923,225.45837 c -9.665469,-2.43928 -4.09615,-14.41751 -3.405142,-21.07423 -0.680611,-10.02104 5.430937,-24.18774 -2.912129,-31.78447 -10.65556,-8.69485 -8.746741,9.92191 -11.96797,15.34813 -6.981505,7.31439 4.981385,23.31049 -6.266603,28.00469 -11.840982,1.23531 -7.510847,-13.62479 -7.446559,-20.59181 0.957412,-19.59747 -0.457912,-39.41155 -5.627023,-58.47071 0.419788,-9.05184 -4.704725,-20.11441 1.266738,-27.1088 16.273869,-3.2311 10.054675,18.09598 11.633631,27.47509 1.779227,6.96622 2.815183,16.33517 5.415364,21.85759 8.717901,-6.87872 20.097416,1.03668 26.31351,7.61596 6.85903,11.50489 2.495082,25.16168 2.865988,37.71944 -3.145651,6.26977 0.859617,21.81125 -9.869805,21.00912 z M -173.1973,222.05739 c -11.73246,-4.0414 0.15045,-14.35472 1.19239,-21.56995 3.03729,-10.77472 6.40718,-21.69113 8.24318,-32.65908 -4.26279,-5.32323 -19.46731,-9.52876 -9.15153,-17.93044 7.5183,-3.20203 15.25936,7.92872 16.80619,-5.01235 3.99791,-4.63866 3.16429,-12.63664 8.61114,-15.88087 13.93613,-3.13184 8.28337,15.53278 9.82727,23.4539 0.85515,18.62924 3.56674,37.24894 7.19686,55.61058 1.96436,16.34044 -18.44163,8.9181 -14.17878,-3.74842 -1.87329,-9.45553 -5.24898,-18.6034 -9.9152,-27.0382 -3.52502,14.25414 -6.58633,28.72069 -11.57891,42.48025 -1.87,1.98308 -4.30173,2.92789 -7.05261,2.29458 z m 24.68412,-60.05337 c -1.16011,-7.86331 -1.14462,7.13874 0,0 z m 112.138052,57.04409 c -8.884744,-4.55478 -6.964029,-16.55885 -5.35213,-24.65654 3.679642,-10.58841 -11.826501,-11.86805 -13.470552,-4.21864 -1.761685,7.49965 2.315319,24.03816 -9.967537,22.51342 -9.187591,-5.37186 -2.877473,-18.89974 -4.989229,-27.80703 -0.01075,-19.92062 -1.971915,-40.08388 -4.38254,-59.64414 3.650691,-9.55075 17.361968,-2.70863 13.166866,6.40268 0.395716,14.1592 2.126937,28.2989 2.669789,42.51089 7.426666,-1.16374 15.207453,-4.61616 22.201839,0.17402 9.73415,6.61214 8.09117,20.32979 6.346027,30.36765 2.628026,5.75869 2.895338,15.70846 -6.222576,14.35767 z m 231.166958,-0.3532 c -9.02256,-1.92297 -5.71382,-13.55174 -11.8952,-18.63381 -5.61919,-7.49163 -11.93377,-15.06153 -18.86916,-20.92689 -1.94459,10.51769 3.54986,21.61173 0.80319,31.44794 -5.03447,6.17575 -14.41417,-0.10051 -12.33453,-7.2856 -0.67283,-19.48486 -1.2554,-38.91783 -0.66985,-58.36841 0.58041,-7.75202 -6.9989,-23.75726 5.92725,-24.24561 12.19359,5.35011 3.98868,24.09067 6.24866,35.17163 2.646,-0.58476 8.2075,-13.00539 11.91976,-17.87129 1.82103,-9.5789 17.97287,-7.08171 14.45385,2.83738 -3.29985,4.93882 -7.85902,8.92384 -10.80194,14.34842 -1.64064,4.59085 -8.38922,8.99919 -6.37521,13.85702 8.54743,13.51336 23.56012,22.79519 27.90815,38.81136 3.35632,4.43632 -0.34631,12.25 -6.31497,10.85786 z M 20.483022,218.61751 C 12.454643,217.87518 6.4418419,210.29252 4.2594039,203.1671 c 1.1978007,-10.5206 13.9984461,-5.66631 16.1920781,1.98302 8.535172,0.67935 14.385575,-10.12226 9.740496,-17.48271 -8.791783,-2.06302 -25.8828118,-4.35373 -20.8408104,-18.17708 3.5829344,-7.83953 12.8324414,-13.2832 21.3347814,-13.00531 9.074893,3.66951 2.97578,14.68485 -5.093944,14.27179 -7.015841,3.91967 11.45058,1.16597 13.322549,6.86453 8.292346,10.03381 7.961686,28.53584 -4.357212,35.57316 -3.885989,3.44604 -8.923573,5.17381 -14.07432,5.42301 z m 102.429288,-0.1721 c -10.73746,-1.48349 -16.70188,-13.15351 -18.92601,-22.6987 -2.66798,-12.57537 3.32098,-25.12778 13.62057,-32.32662 5.45063,-9.0943 22.76442,-2.00197 14.8752,8.14184 -4.52227,6.16561 -9.74008,11.92821 -13.84412,18.50789 -5.60573,4.09585 3.37995,20.31166 10.20018,12.28333 6.57921,-5.45978 19.46843,1.19848 13.36032,9.61116 -6.27046,2.05696 -12.59842,5.56487 -19.28614,6.4811 z m -142.186173,-2.9056 c -10.541081,-4.12613 -2.27682,-18.29756 -3.890658,-26.65364 -3.064331,-8.14878 2.335158,-25.25112 12.355279,-14.99195 1.6555897,8.69044 -1.901832,18.25502 -0.919848,27.48636 0.713724,6.34168 1.8238803,14.62696 -7.544773,14.15923 z m -88.526627,-2.08072 c -6.91072,-0.1172 -10.32255,-6.93114 -13.02567,-11.96834 -2.34222,-10.16527 -0.60819,-21.29908 -1.40468,-31.8317 -0.12952,-14.35373 -0.0836,-28.74846 -0.82803,-43.10084 5.1476,-13.48409 18.77566,1.80868 12.40467,11.22768 0.007,12.25956 -1.14327,24.59956 0.33,36.83547 9.76575,-7.55718 22.938637,0.5766 29.082375,9.01341 3.863772,6.6208 2.017477,15.16833 -0.784615,21.88777 -5.026066,7.53844 -15.623371,5.52773 -23.37443,7.8834 l -2.39962,0.053 z m 4.52424,-13.42559 c 6.969034,0.62699 16.656665,-4.94985 8.242937,-11.83729 -6.373477,-8.59094 -15.936807,3.47538 -12.705937,10.20457 1.09958,1.38216 2.64071,2.41523 4.463,1.63272 z m 90.510651,-37.08362 c -13.988122,-2.31736 1.028246,-21.47522 7.1440702,-9.32566 1.7346425,4.76505 -1.3524916,10.92658 -7.1440702,9.32566 z"
       id="path1" /></g></svg>
