<svg xmlns="http://www.w3.org/2000/svg" xml:space="preserve" width="1438.918" height="438.566" viewBox="0 0 380.714 116.037">
  <path d="M232.4375 2.6757812c-.36642.1093698-1.01919-.1431117-1.06957.4147027-1.77318 2.9376896-1.68645 6.5467497-1.33064 9.8090311.54363 4.858572 1.48127 9.692482 1.54252 14.595717 5.29619 19.97298 6.63478 40.846667 5.34234 61.422685-.3321 4.265842-1.24263 8.674108-.004 12.882863.49775 1.28004 1.79956 2.1369 3.16601 2.12891 2.03091.24064 3.60524-1.64573 4.00977-3.4668.48192-2.125192.16543-4.247325-.049-6.348859-.51381-4.327164-1.47704-8.808878-.26873-13.107788.48657-1.633272 1.46513-3.050229 2.35551-4.474085 1.22045-2.994082 1.33254-6.278071 2.11551-9.390001.60535-2.852472 1.48878-5.939529 3.85255-7.845282 2.07418-1.493746 4.97556-1.304052 7.08789.0098 4.37442 2.301724 7.16408 6.97976 7.73177 11.820985 1.09972 7.53139-1.2649 15.024176-1.26613 22.502721.0591 1.573996-.13113 3.132642-.47964 4.666286-.8007 3.990957-2.16183 8.055527-1.45952 12.166037.55481 2.35711 3.64262 3.80815 5.6968 2.35252 1.53377-1.10017 1.75732-3.13729 2.15097-4.84003.80054-4.44651.46441-9.099755 2.03273-13.397305.17707-1.44046.0185-2.90573.1431-4.355091.31251-7.589478 1.63036-15.172897.51265-22.75509-.50485-3.016886-1.3238-6.071089-3.02174-8.599083-1.74637-2.010899-3.86069-3.676048-6.01565-5.226731-2.92394-2.019305-6.27536-3.686393-9.90229-3.973891-2.65823-.121486-5.34638.838847-7.28907 2.662648-.66221.488973-1.51958.584417-2.31836.522899-3.46879-6.755903-4.26717-14.4078-5.925-21.71573-.86704-3.272304-1.11082-6.67299-.95168-10.046573.0752-5.09232.67345-10.241365-.83033-15.1808382-.60115-1.7558883-2.21139-3.2681584-4.15041-3.2209217-.46892-.028087-.93889-.039815-1.4082-.013672zM109.45898 13.847656c-1.33503.187713-2.70274 1.194631-2.89667 2.581755 2.22713 18.774361 4.09403 37.626678 4.25251 56.548171-.0195 1.448085.10843 2.88048.32001 4.310051.64108 5.980889-1.03728 11.91985-.26591 17.879208.34602 2.116694 1.29453 4.393259 3.25236 5.465159 1.69496.32042 3.64031-.45912 4.33061-2.114004 1.07348-2.17308 1.16455-4.667471 1.34407-6.991781.24072-4.042381-.0985-8.183779.99256-12.12659.94956-3.3133 4.16595-5.506724 7.45224-6.049348 3.90687-.7189 8.38757.789445 10.48153 4.297744 1.33954 2.275551 1.3002 5.076884.60228 7.553339-.89477 4.020085-1.59426 8.121861-1.39198 12.232613.14977 2.731227.77997 5.855147 2.80066 7.992907.8838.9089 2.03322 1.92036 3.40094 1.63153 1.24863-.0983 2.41626-1.0139 2.64506-2.23066.48778-1.50794.40774-3.13488.12289-4.73828-.19227-1.578233-.94458-3.002213-1.26456-4.543843-.18411-1.412322.37213-2.823227.48525-4.198034.80585-5.590703 1.28884-11.500054-.41596-17.006197-1.36698-4.231791-4.76836-8.004225-9.22445-8.958584-2.2241-.477927-4.51969-.378725-6.66436-.01987-4.24467.757968-8.42699 1.845433-12.70283 2.428071-.50143-15.410379-2.35615-30.75518-2.81445-46.177735 1.43933-2.183173.84327-5.501909-1.46849-6.84187-.98042-.665143-2.18367-1.046955-3.37331-.923755zm225.86719.07813c-1.79154.102782-3.72068 1.277348-3.91279 3.202558-.73085 3.303019.10801 6.668569.55958 9.949572.64606 3.720148 1.08508 7.509143.76787 11.2872-.46713 18.611226.14448 37.225691.74745 55.826295-1.30736 3.205764 1.75405 7.260794 5.21147 6.729114 1.00787-.15433 2.22262-.70901 2.22408-1.895129.86105-4.562984.0442-9.155092-.58806-13.6739-.812-5.435468-1.52852-11.006509-.55616-16.471009-.0769-1.898436 2.6773-3.01653 3.92156-1.556263 7.21307 6.145492 13.36811 13.411866 19.08399 20.939453 1.28708 1.444727 2.71414 2.900009 3.48745 4.741077 1.72473 3.508159 2.00639 7.502111 3.75473 10.991341 1.0507 1.86587 3.373 3.27305 5.51954 2.53907 1.93074-.77802 2.80001-3.17082 2.39658-5.11762-.14697-1.07097-.99447-1.836946-1.19541-2.889581-1.31719-4.447326-3.62376-8.541521-6.36268-12.264905-6.06033-8.231946-13.98429-14.903016-19.77688-23.346714-.84249-1.313564-1.91107-2.590721-2.01681-4.215173-.36134-2.986804 1.11387-5.821554 2.91931-8.092668 1.67129-2.226593 3.4605-4.415273 4.5654-6.995506 2.84214-4.943105 7.10177-8.846726 10.28494-13.54854.58661-1.59321-.0806-3.665925-1.75293-4.280144-2.39871-1.249385-5.92653-.665602-7.26774 1.844502-.51465 1.113508-.66841 2.424881-1.55784 3.339814-3.69488 5.377606-6.17005 11.560072-10.4293 16.550906-1.33654 1.328855-3.2378 1.907295-5.08594 1.978516-1.54325-5.705977-.90835-11.668967-.36851-17.466258.31585-4.076207.81176-8.205394-.0867-12.261778-.46577-2.444201-1.9796-4.789603-4.27914-5.855949-.069.0039-.13802.0078-.20703.01172zm-274.70117.57812c-1.405015.44013-2.258418 1.86445-2.6325 3.199584.33177 8.134503.536485 16.274615.598761 24.416154.07538 8.047056.156194 16.09471.38011 24.138949.07347 8.087984-.643976 16.302415.936804 24.256106.542389 1.923381 1.804902 3.526665 2.778989 5.243595 1.619871 2.569222 3.943683 5.140326 7.123089 5.544406 2.803856.34442 5.477836-.83413 8.245162-1.0416 4.178473-.548742 8.376295-.689895 12.276828-2.433481 1.979538-.915994 3.769476-2.547355 4.280698-4.738353 1.778816-4.833359 2.822397-10.258823 1.240242-15.290201-.9793-2.938527-3.376347-5.054603-5.599288-7.0755-3.214141-2.774946-7.046372-4.954568-11.218031-5.693422-3.264673-.599069-6.78515.134585-9.400006 2.221256-1.253832.915941-2.446657 1.911717-3.686639 2.846257-1.591523-10.283664-1.412585-20.724449-1.119488-31.094268.158952-3.788741.09643-7.584544.301128-11.370576.423358-1.084928 1.235559-2.004029 1.375-3.197265.711968-3.574371-.921722-7.550933-3.990234-9.529297-.568005-.293103-1.247191-.551549-1.890625-.402344Zm-27.197266 7.355469c-.980206-.0491-2.083708.232725-2.583032 1.155318-2.246726 2.748034-2.572153 6.429579-3.969702 9.592729-.536917 1.418245-1.318382 2.748156-2.146304 3.993331-.364619 2.683705-1.274265 5.656201-3.740119 7.127175-2.26986 1.331657-5.029228.691115-7.369274-.08949-2.187279-.636062-4.3668248-1.571281-6.6446936-.906016-1.0912262.622082-1.9471 1.696083-2.3828125 2.861328-.1725414 1.441145 1.1829273 2.443965 2.0527343 3.298828 3.4390698 2.890302 7.7020758 4.8323 10.5158038 8.438033.472456.442542-.03172 1.141631-.0141 1.703592-2.031929 11.78288-5.632751 23.208192-8.8093093 34.714762-1.4104581 4.507532-4.7835233 8.199815-5.6865321 12.889705-.1363917 1.20019.6729056 2.27233 1.7116386 2.78236 1.6986306 1.06263 4.2544155.97798 5.5520333-.66517.6280005-1.6257 1.1275705-3.30838 1.6921805-4.96177 4.349406-13.500533 7.254894-27.399325 10.70821-41.141746.944332-.389407 1.987826.231614 2.277344 1.169922 5.467314 9.508315 9.610731 19.839352 11.693359 30.626953.07319 1.613915-.865609 3.137263-.489192 4.760745.28036 1.970556 1.429144 3.776296 2.984872 4.892116 1.36588.9775 3.2605 1.67843 4.87932.92917 1.549951-.93046 1.694601-2.94959 1.672536-4.57479-.142705-2.656472-.89785-5.232134-1.313164-7.850991-3.045622-16.460071-5.190083-33.100019-6.048619-49.821992-.801974-5.946609.697788-12.031587-.64474-17.871368-.326055-1.444114-1.35497-2.985307-2.982422-3.029297-.30433-.03383-.610363-.04018-.916016-.02344zM166.82422 42.908203c-2.4619.62705-4.40035 3.069045-4.36365 5.614132.19981 1.246024 1.4376 1.869193 2.54732 2.129447 1.39805.425006 3.21977.825468 4.3347-.413466 1.94537-2.012808 1.54116-5.956771-1.08478-7.205113-.45276-.191565-.95606-.274951-1.43359-.125zM29.345703 47.552734c1.820467.115532 2.858831 2.020806 2.923828 3.673828.379232 1.915289.0277 4.188315-1.502143 5.520785-1.771569 1.261757-4.526961-.432183-4.327935-2.5618-.17294-1.935761-.396247-4.146672.846832-5.794569.523484-.554317 1.295579-.876132 2.059418-.838244zm178.205077 2.146485c-6.75256.406023-13.24497 4.259049-16.75856 10.092308-.81511 1.44343-1.30691 2.923587-1.35639 4.608327-.11224 2.113674.95469 4.145668 2.62091 5.413172 2.74244 2.163663 6.24911 3.162503 9.51513 4.077816 2.71813.71702 5.51822 1.270899 8.28347 1.916695.88142.469726 1.1824 1.535148 1.66614 2.348713 2.86513 6.079265.71586 13.990939-4.78329 17.836394-2.53042 1.788005-5.76389 2.782794-8.84965 2.256108-1.46025-.497021-1.68168-2.199843-2.35369-3.374376-1.60877-2.724125-4.71623-4.791744-7.95477-4.48961-1.39819.383124-2.42251 1.972503-2.1582 3.392578 1.60594 4.499046 4.53609 8.696766 8.71874 11.134766 1.90108 1.11458 4.11414 1.80205 6.33204 1.47656 3.96796-.50117 7.79621-2.12312 10.84595-4.72186 2.80073-1.677938 5.20538-4.059445 6.65531-7.006495 2.73679-5.359401 2.87213-11.80432 1.10993-17.488925-.85891-2.759189-2.27091-5.324239-4.02255-7.612594-.68741-1.483644-2.429-1.768132-3.84195-2.157873-3.22904-.766321-6.65185-.66704-9.79883-1.87158-1.74521-.888781-2.34256-3.559265-.84493-4.946128 1.07222-1.358395 2.82583-2.050747 4.53281-1.969023 2.97586-.369166 5.8015-2.96809 5.7635-6.080548-.19345-1.543074-1.69768-3.05587-3.32112-2.834425zm95.42188 2.753906c-2.09974.163294-4.11919 1.429508-5.03907 3.347656-7.83886 5.247076-13.33589 14.215134-13.58823 23.738672-.12134 6.483205 2.19183 12.79635 5.51376 18.282453 2.45303 3.878174 6.10472 7.333584 10.687 8.365664 1.79626.25523 3.51795-.52887 5.22898-.95205 4.42491-1.38271 8.64758-3.39848 13.05693-4.92302 1.0166-1.52217.78673-3.824772-.78327-4.893003-2.36888-2.091592-6.22201-2.523739-8.85734-.694198-1.30344 1.18506-2.65006 2.497573-4.46033 2.810697-2.66637.659664-5.51383-.405752-7.41273-2.315293-3.03708-2.824843-4.81104-6.986842-4.73703-11.131219.10876-2.0684 1.04731-4.044968 2.51112-5.493475 3.25204-4.99078 7.04033-9.591343 10.71443-14.270101 1.39688-1.834109 2.83163-3.657561 4.03296-5.624736.71844-1.596269.24441-3.678763-1.26013-4.646688-1.58155-1.264588-3.57483-1.714429-5.60705-1.601359zM161.50781 63.917969c-1.94275.377963-2.83274 2.405797-3.46957 4.06252-.60052 1.622103-.91005 3.131266-1.03302 4.933861-.16905 2.171162.22834 4.326499.78775 6.413775.61552 3.513121-.14677 7.06754-.67091 10.541593-.55906 3.338355-1.28304 6.798473-.53285 10.162982.50787 1.68447 1.91441 3.47562 3.83071 3.41261 1.41995-.0349 3.02374-.67624 3.46195-2.15797.84601-2.180768.47668-4.614046.31215-6.815723-.44639-3.79347-.54877-7.630497-.11367-11.429941.52639-5.72665 1.74352-11.440155.97629-17.18816-.75973-.920726-1.88709-1.668356-3.08594-1.90625-.15401-.02681-.30663-.03824-.46289-.0293zm-83.357419 9.205078c3.008208-.09194 5.620349 1.858432 7.432556 4.093335 2.291456 1.949553 4.100088 4.964377 3.500793 8.066776-.640709 3.282129-3.530431 5.573584-6.500519 6.737742-2.775508 1.189872-5.847941 1.20399-8.802748 1.460232-3.319819-.03965-6.229929-2.986414-6.373033-6.279848-.508442-4.466401 1.653673-8.988185 5.043743-11.835879 1.611774-1.302388 3.606662-2.191998 5.699208-2.242358z" style="fill:#000;stroke-width:.641621"/>
</svg>
