<svg xmlns="http://www.w3.org/2000/svg" xml:space="preserve" width="1438.918" height="438.566" viewBox="0 0 380.714 116.037"><path d="M88.12 225.458c-9.665-2.439-4.095-14.417-3.404-21.074-.68-10.02 5.43-24.188-2.912-31.784-10.656-8.695-8.747 9.922-11.968 15.348-6.982 7.314 4.981 23.31-6.267 28.004-11.84 1.236-7.51-13.624-7.446-20.591.957-19.598-.458-39.412-5.628-58.471.42-9.052-4.704-20.114 1.267-27.109 16.274-3.23 10.055 18.096 11.634 27.475 1.78 6.966 2.815 16.335 5.415 21.858 8.718-6.879 20.098 1.037 26.314 7.616 6.859 11.505 2.495 25.161 2.866 37.72-3.146 6.269.86 21.81-9.87 21.008zm-261.317-3.4c-11.733-4.042.15-14.355 1.192-21.57 3.037-10.775 6.407-21.692 8.243-32.66-4.263-5.323-19.467-9.528-9.151-17.93 7.518-3.202 15.26 7.929 16.806-5.012 3.998-4.64 3.164-12.637 8.611-15.881 13.936-3.132 8.283 15.532 9.827 23.454.855 18.629 3.567 37.249 7.197 55.61 1.965 16.34-18.441 8.918-14.179-3.748-1.873-9.456-5.249-18.604-9.915-27.038-3.525 14.254-6.586 28.72-11.579 42.48-1.87 1.983-4.301 2.928-7.052 2.294zm24.684-60.054c-1.16-7.863-1.145 7.139 0 0zm112.138 57.044c-8.885-4.555-6.964-16.559-5.352-24.656 3.68-10.589-11.827-11.868-13.47-4.22-1.762 7.5 2.315 24.04-9.968 22.514-9.188-5.372-2.878-18.9-4.99-27.807-.01-19.92-1.971-40.084-4.382-59.644 3.65-9.55 17.362-2.708 13.167 6.403.395 14.16 2.127 28.299 2.67 42.51 7.426-1.163 15.207-4.615 22.201.175 9.735 6.612 8.092 20.33 6.346 30.367 2.628 5.76 2.896 15.709-6.222 14.358zm231.167-.353c-9.023-1.923-5.714-13.552-11.895-18.634-5.62-7.492-11.934-15.061-18.87-20.927-1.944 10.518 3.55 21.612.804 31.448-5.035 6.176-14.415-.1-12.335-7.285-.673-19.485-1.255-38.918-.67-58.369.58-7.752-6.999-23.757 5.928-24.245 12.193 5.35 3.988 24.09 6.248 35.171 2.646-.585 8.208-13.005 11.92-17.871 1.821-9.579 17.973-7.082 14.454 2.837-3.3 4.94-7.86 8.924-10.802 14.349-1.64 4.59-8.39 8.999-6.375 13.857 8.547 13.513 23.56 22.795 27.908 38.811 3.356 4.436-.347 12.25-6.315 10.858zm-174.309-.077c-8.028-.743-14.041-8.325-16.224-15.45 1.198-10.522 13.999-5.667 16.192 1.982 8.536.68 14.386-10.122 9.741-17.483-8.792-2.063-25.883-4.353-20.84-18.177 3.582-7.84 12.832-13.283 21.334-13.005 9.075 3.67 2.976 14.685-5.094 14.272-7.016 3.92 11.45 1.166 13.323 6.864 8.292 10.034 7.961 28.536-4.358 35.574-3.886 3.446-8.923 5.173-14.074 5.423zm102.43-.173c-10.738-1.483-16.703-13.153-18.927-22.698-2.668-12.576 3.321-25.128 13.62-32.327 5.452-9.094 22.765-2.002 14.876 8.142-4.522 6.166-9.74 11.928-13.844 18.508-5.606 4.096 3.38 20.311 10.2 12.283 6.58-5.46 19.469 1.199 13.36 9.611-6.27 2.057-12.598 5.565-19.286 6.481zm-142.187-2.905c-10.54-4.126-2.277-18.298-3.89-26.654-3.065-8.149 2.335-25.25 12.355-14.992 1.655 8.69-1.902 18.255-.92 27.487.714 6.341 1.824 14.627-7.545 14.159zm-88.526-2.08c-6.911-.118-10.323-6.932-13.026-11.97-2.342-10.165-.608-21.298-1.405-31.831-.13-14.354-.083-28.748-.828-43.1 5.148-13.485 18.776 1.808 12.405 11.227.007 12.26-1.143 24.6.33 36.835 9.766-7.557 22.938.577 29.082 9.014 3.864 6.62 2.018 15.168-.784 21.888-5.027 7.538-15.624 5.527-23.375 7.883l-2.4.053zm4.524-13.427c6.969.627 16.656-4.95 8.243-11.837-6.374-8.59-15.937 3.476-12.706 10.205 1.1 1.382 2.64 2.415 4.463 1.632zm90.51-37.083c-13.988-2.317 1.029-21.475 7.144-9.326 1.735 4.765-1.352 10.927-7.144 9.326z" style="fill:#101010;stroke-width:.641621" transform="translate(178.336 -109.451)"/></svg>